<svg xmlns="http://www.w3.org/2000/svg" viewBox="0 0 576 512"><!--!Font Awesome Free 6.7.2 by @fontawesome - https://fontawesome.com License - https://fontawesome.com/license/free Copyright 2025 Fonticons, Inc.--><path d="M384 64H192C86 64 0 150 0 256s86 192 192 192h192c106 0 192-86 192-192S490 64 384 64zM64 256c0-70.7 57.2-128 128-128 70.7 0 128 57.2 128 128 0 70.7-57.2 128-128 128-70.7 0-128-57.2-128-128zm320 128h-48.9c65.2-72.9 65.2-183.1 0-256H384c70.7 0 128 57.2 128 128 0 70.7-57.2 128-128 128z"/></svg>